<mxfile host="app.diagrams.net" modified="2021-05-25T06:22:37.961Z" agent="5.0 (Macintosh; Intel Mac OS X 10_15_7) AppleWebKit/537.36 (KHTML, like Gecko) Chrome/90.0.4430.212 Safari/537.36" etag="eSjnjl2DcwN-L_c6ncia" version="14.7.0" type="github">
  <diagram id="iWidnzjzuuUGfuTEDN7k" name="Page-1">
    <mxGraphModel dx="1186" dy="771" grid="1" gridSize="10" guides="1" tooltips="1" connect="1" arrows="1" fold="1" page="1" pageScale="1" pageWidth="827" pageHeight="1169" background="#FFFF99" math="0" shadow="0">
      <root>
        <mxCell id="0" />
        <mxCell id="1" parent="0" />
        <mxCell id="11NtCzYhzEmpxX1tOsvI-1" value="test" style="rounded=0;whiteSpace=wrap;html=1;" vertex="1" parent="1">
          <mxGeometry x="70" y="40" width="120" height="60" as="geometry" />
        </mxCell>
        <mxCell id="11NtCzYhzEmpxX1tOsvI-4" value="test2" style="rounded=0;whiteSpace=wrap;html=1;" vertex="1" parent="1">
          <mxGeometry x="80" y="160" width="120" height="60" as="geometry" />
        </mxCell>
        <mxCell id="11NtCzYhzEmpxX1tOsvI-7" value="" style="shape=flexArrow;endArrow=classic;startArrow=classic;html=1;exitX=0.408;exitY=-0.033;exitDx=0;exitDy=0;exitPerimeter=0;entryX=0.5;entryY=1;entryDx=0;entryDy=0;" edge="1" parent="1" source="11NtCzYhzEmpxX1tOsvI-4" target="11NtCzYhzEmpxX1tOsvI-1">
          <mxGeometry width="100" height="100" relative="1" as="geometry">
            <mxPoint x="80" y="200" as="sourcePoint" />
            <mxPoint x="180" y="100" as="targetPoint" />
          </mxGeometry>
        </mxCell>
      </root>
    </mxGraphModel>
  </diagram>
</mxfile>
